<svg width="1200" height="630" xmlns="http://www.w3.org/2000/svg">
  <rect width="1200" height="630" fill="#0a0a08"/>
  <rect x="0" y="0" width="1200" height="630" fill="none" stroke="#c9a96e" stroke-width="2" stroke-opacity="0.12"/>
  <!-- Decorative lines -->
  <line x1="80" y1="80" x2="80" y2="550" stroke="#c9a96e" stroke-opacity="0.08" stroke-width="1"/>
  <line x1="1120" y1="80" x2="1120" y2="550" stroke="#c9a96e" stroke-opacity="0.08" stroke-width="1"/>
  <!-- Tag -->
  <line x1="120" y1="200" x2="148" y2="200" stroke="#c9a96e" stroke-width="1"/>
  <text x="158" y="204" font-family="monospace" font-size="14" fill="#c9a96e" letter-spacing="3">DATA ENGINEER &amp; FULL-STACK DEVELOPER</text>
  <!-- Name -->
  <text x="120" y="310" font-family="Georgia, serif" font-size="82" font-weight="900" fill="#f5f0e8" letter-spacing="-2">Hamed</text>
  <text x="120" y="400" font-family="Georgia, serif" font-size="82" font-weight="900" font-style="italic" fill="#c9a96e" letter-spacing="-2">Bouare</text>
  <!-- Bottom info -->
  <text x="120" y="530" font-family="monospace" font-size="13" fill="#6b6b5e" letter-spacing="2">PYTHON  /  VUE.JS  /  KUBERNETES  /  DATA</text>
  <!-- HB Logo -->
  <g transform="translate(1020, 100)">
    <path d="M0 0 L0 48 M0 24 L24 24 M24 0 L24 48" stroke="#c9a96e" stroke-width="2.5" stroke-linecap="round" fill="none"/>
    <path d="M36 0 L36 48 M36 0 L50 0 Q58 0 58 8 Q58 24 50 24 L36 24 L50 24 Q60 24 60 36 Q60 48 50 48 L36 48" stroke="#c9a96e" stroke-width="2.5" stroke-linecap="round" fill="none"/>
  </g>
</svg>
